PathFileType	4	(X/Y/Z)	C:\Users\Vitor Bertoli\OneDrive\Documents\Yolotestes\IMG_0212_Sports2D\IMG_0212_Sports2D_m_person00.trc
DataRate	CameraRate	NumFrames	NumMarkers	Units	OrigDataRate	OrigDataStartFrame	OrigNumFrames
112	112	12	22	m	112	200	401
Frame#	Time	Hip			RHip			RKnee			RAnkle			RBigToe			RSmallToe			RHeel			LHip			LKnee			LAnkle			LBigToe			LSmallToe			LHeel			Neck			Head			Nose			RShoulder			RElbow			RWrist			LShoulder			LElbow			LWrist		
		X1	Y1	Z1	X2	Y2	Z2	X3	Y3	Z3	X4	Y4	Z4	X5	Y5	Z5	X6	Y6	Z6	X7	Y7	Z7	X8	Y8	Z8	X9	Y9	Z9	X10	Y10	Z10	X11	Y11	Z11	X12	Y12	Z12	X13	Y13	Z13	X14	Y14	Z14	X15	Y15	Z15	X16	Y16	Z16	X17	Y17	Z17	X18	Y18	Z18	X19	Y19	Z19	X20	Y20	Z20	X21	Y21	Z21	X22	Y22	Z22
200	1.7857142857142856	5.878938244685595	0.9121324318894978	0.0	5.814828106049341	0.9241377175464383	0.0	5.596459925894388	0.544793740583053	0.0	5.218025852134717	0.2869526360517694	0.0	5.187269976894924	0.09505984619128213	0.0	5.152708275343417	0.12328609613908623	0.0	5.15455577412807	0.30051061237154547	0.0	5.949048424552373	0.9205814363086295	0.0	6.2240175193292595	0.6937466360020422	0.0	6.036773768413431	0.32619723532836875	0.0	6.183519152638155	0.19489026409657753	0.0	6.172655920110003	0.2180421035628208	0.0	5.96805922879687	0.28832243189377904	0.0	6.1104544500257	1.4405749392437135	0.0	6.301251585566673	1.6261921967113575	0.0	6.287792451826897	1.4937398970360183	0.0	6.11115025975693	1.3903422734698818	0.0	6.09232929925144	1.137612484896166	0.0	6.299261931557565	1.1558419470657455	0.0	6.024107586093165	1.425190813102183	0.0	5.84771306252245	1.366753789926339	0.0	5.823747465838288	1.1469179383475945	0.0
201	1.794642857142857	5.924490584231596	0.9166553206210764	0.0	5.861292952680228	0.9286802509937548	0.0	5.642497789583652	0.5464983193395556	0.0	5.250469280722244	0.31722471518570433	0.0	5.19764223753526	0.12634800698718254	0.0	5.16783683945672	0.1568014562630531	0.0	5.189497825097698	0.33772998573837976	0.0	5.993813154024414	0.9255406709518911	0.0	6.264191114910838	0.6923894861735725	0.0	6.10393235973129	0.30400603457217845	0.0	6.26228436170106	0.18118966074362228	0.0	6.249950197961146	0.20498832490709304	0.0	6.036944851074634	0.2621448564547955	0.0	6.156091395109013	1.4446881253401043	0.0	6.345357791746627	1.6297786421734033	0.0	6.331497827429954	1.4977762472171443	0.0	6.158765817805792	1.39539631021646	0.0	6.129718279028742	1.1445591790314498	0.0	6.333154877814522	1.1480449613098438	0.0	6.0672770170105235	1.4292978722564407	0.0	5.885146077357389	1.3621544258901077	0.0	5.870349561842524	1.144171601212727	0.0
202	1.8035714285714284	5.969117786777212	0.9206986769785634	0.0	5.906840566642519	0.932858624394361	0.0	5.692114024554219	0.5458951249465136	0.0	5.287254030042379	0.3493890146399326	0.0	5.212964946038194	0.1619498615615101	0.0	5.188080748434267	0.19439422254341915	0.0	5.229258466994018	0.37658470870675903	0.0	6.037352165722987	0.9299533832941206	0.0	6.301803345274508	0.6883847724697018	0.0	6.166029518732895	0.2832789139341144	0.0	6.333360373797008	0.16832435860286205	0.0	6.3196233445836105	0.19378433305281056	0.0	6.1009958690514745	0.23823725048863942	0.0	6.201844074146362	1.4480716776424043	0.0	6.389414980358151	1.6331679721000156	0.0	6.37536144756261	1.5018595916359676	0.0	6.205633466588484	1.3997596423837229	0.0	6.165435029358189	1.1508740559839428	0.0	6.365742928609613	1.1366538810757965	0.0	6.110769010921766	1.4321804765224473	0.0	5.923092088608578	1.3542639386792765	0.0	5.919849108938805	1.1389626486816842	0.0
203	1.8125	6.0128783834259325	0.9241724418677758	0.0	5.951555634673912	0.936518130742452	0.0	5.745016461252765	0.5432106620182334	0.0	5.328759878732084	0.3827268378522175	0.0	5.23399170292144	0.20111891087372955	0.0	5.214067824528534	0.2352557364766257	0.0	5.274272231804423	0.41620998739707565	0.0	6.079672492700771	0.9336762263345777	0.0	6.337022972521308	0.6819785555435068	0.0	6.222341448315542	0.2641090538220167	0.0	6.395921517988754	0.15585413109629087	0.0	6.38090846032259	0.18421551971655398	0.0	6.159313358707731	0.21668244442738763	0.0	6.247484511258357	1.4505789855675608	0.0	6.43326948677889	1.6362036687412398	0.0	6.419348046665956	1.5057678287391705	0.0	6.251717115319932	1.4033018047748091	0.0	6.199710466572581	1.156514197372123	0.0	6.396910921063188	1.1221173616893656	0.0	6.154432548048711	1.433778351246351	0.0	5.9619582109109475	1.343395160567777	0.0	5.972364147767664	1.1314544122725927	0.0
204	1.8214285714285714	6.055891010725112	0.9270489267409235	0.0	5.995635939659349	0.9395915773918654	0.0	5.800998788534973	0.5388431374030022	0.0	5.375299254399809	0.41645850011082575	0.0	5.261398075546915	0.24281836430131734	0.0	5.246374702788562	0.2783058618839395	0.0	5.324814233572453	0.4557289678446198	0.0	6.1208053360761765	0.936647598568049	0.0	6.370022701196462	0.6734387216783748	0.0	6.272307524037791	0.24651589146518355	0.0	6.449470001117194	0.14337173024500938	0.0	6.433355153004677	0.17605665179499552	0.0	6.211102352802349	0.1974575065121569	0.0	6.2928091425305	1.452115115838292	0.0	6.476771383801681	1.6387704395339409	0.0	6.463371745841692	1.5092408063314215	0.0	6.297001324979598	1.4059380676828026	0.0	6.232746236452986	1.1614691951326077	0.0	6.426398726396388	1.1049965111734648	0.0	6.1982150485146565	1.4340642543005835	0.0	6.00216892959637	1.3298566532509477	0.0	6.0279474418725805	1.1217524538109	0.0
205	1.8303571428571428	6.098299217609861	0.9293479763879902	0.0	6.03936090648673	0.942078864449213	0.0	5.859918420040587	0.5332859358071705	0.0	5.427067765740554	0.44979707746806497	0.0	5.295713241033181	0.2857912388050019	0.0	5.285457405577819	0.32225658663132356	0.0	5.380931405073757	0.4943077574795877	0.0	6.160772332669125	0.9388722403201989	0.0	6.400973778837666	0.6630145749837522	0.0	6.315596328025274	0.23040117091577064	0.0	6.493937818233232	0.13054092487341507	0.0	6.476894448303597	0.16907976105373884	0.0	6.255814148277287	0.1804259633311564	0.0	6.337685498560538	1.4526762584009507	0.0	6.5198234223336495	1.6407810798766067	0.0	6.507321139979976	1.5120025480421946	0.0	6.341494396810202	1.4076370811537298	0.0	6.264723099116446	1.1657714640095256	0.0	6.453872359999486	1.0859705780285922	0.0	6.2421718808756514	1.433079121955348	0.0	6.044168456142413	1.3139641100465655	0.0	6.086572583327759	1.1099334731708994	0.0
206	1.8392857142857142	6.140247044754311	0.9311233001310794	0.0	6.083045064623334	0.9440025234992504	0.0	5.921642263571307	0.5270572640578615	0.0	5.4841188933374205	0.4819948995660529	0.0	5.337218029624477	0.32867665498659804	0.0	5.331535671719587	0.3657256755590573	0.0	5.442457859753453	0.5311892235347005	0.0	6.199563801622748	0.9403932544880336	0.0	6.430044724703062	0.650921090809485	0.0	6.352129694153883	0.21555757344350013	0.0	6.529721642574859	0.11715346050378965	0.0	6.511852272964345	0.16305135899269266	0.0	6.293233270781558	0.1653372891891166	0.0	6.382085037573917	1.4523559630400884	0.0	6.562454351820962	1.6421412902614432	0.0	6.551112940886389	1.513805140348938	0.0	6.385234644894955	1.4084298517750413	0.0	6.295813205387621	1.1694940212177933	0.0	6.479022524847989	1.0658264029639812	0.0	6.286479937145792	1.4309539208160376	0.0	6.088429524686971	1.2960736187718083	0.0	6.148124323467621	1.0961598926714247	0.0
207	1.8482142857142856	6.18185244655426	0.9324512927566081	0.0	6.126970906922264	0.9453866196406583	0.0	5.986026689022119	0.520637167381708	0.0	5.546334087341386	0.5123921029933908	0.0	5.385882818284389	0.3701366251275252	0.0	5.384529231968189	0.40737352983133224	0.0	5.509027766884355	0.56571256551183	0.0	6.2371367725229	0.9412774751624032	0.0	6.45739051801017	0.6373671248198505	0.0	6.382044390851638	0.20174872382328135	0.0	6.557588285189104	0.10322540021939605	0.0	6.5388927040238976	0.15772413338994237	0.0	6.3234604577419935	0.15186811883818543	0.0	6.42606540534531	1.4513048510974271	0.0	6.604794888111814	1.6427682932383842	0.0	6.594721250850575	1.5145175807604612	0.0	6.4282622250496395	1.4084171232529883	0.0	6.326186344798751	1.1727631953651638	0.0	6.5016267583892855	1.045422928830278	0.0	6.331420327493675	1.4278900093707112	0.0	6.135410683245178	1.2765999902904415	0.0	6.212475483385701	1.0808317870467021	0.0
208	1.857142857142857	6.223184855252232	0.9334182849905245	0.0	6.171338730058643	0.9462650597692601	0.0	6.052937359762157	0.5144389644129278	0.0	5.613382196282381	0.5404268719959743	0.0	5.441387778428716	0.4089616476897809	0.0	5.444071073425724	0.4460077429520502	0.0	5.580063677152697	0.5973080829851836	0.0	6.273454717379241	0.941621213349185	0.0	6.483126820098063	0.6225956597611034	0.0	6.405650247422841	0.18880214500481107	0.0	6.578507614234141	0.08904940157696645	0.0	6.558916615195527	0.15277972507701376	0.0	6.346864486433407	0.1397213089774358	0.0	6.4697124163529764	1.4496764665501773	0.0	6.646952755456365	1.6426416846896879	0.0	6.638145402948804	1.514179459579633	0.0	6.470583497867983	1.4077598357039078	0.0	6.356005018377579	1.1757728503775766	0.0	6.521594453320938	1.02563822603468	0.0	6.377308966061236	1.424112698795681	0.0	6.18547252667886	1.256012209518233	0.0	6.279647893800304	1.0646979882586605	0.0
209	1.8660714285714284	6.264271544353278	0.9341019281310462	0.0	6.21625575003478	0.946679274243563	0.0	6.122267433005517	0.5088174189246553	0.0	5.684709599088194	0.5656140976959221	0.0	5.503196950217484	0.44416918239739034	0.0	5.509559698355301	0.48065094818902787	0.0	5.654784202406806	0.6254756944539768	0.0	6.308562192171634	0.9415527553906389	0.0	6.507302070566129	0.6069164569565341	0.0	6.423424683818998	0.17665570894658933	0.0	6.593535149801453	0.07512032874592955	0.0	6.572969709806188	0.14765548342003218	0.0	6.364050841920891	0.12871328183268177	0.0	6.51308110724472	1.4475972241836763	0.0	6.688953001346063	1.6418168618966953	0.0	6.68137647254459	1.512962548972326	0.0	6.5121789433533825	1.4066484036172422	0.0	6.385412867774748	1.1787768469955495	0.0	6.539023726681895	1.0073019403361396	0.0	6.424403779985755	1.4198245545656147	0.0	6.2387922324561105	1.234818748492981	0.0	6.349834289306039	1.0489022087485964	0.0
210	1.875	6.3051317473819015	0.9345506067769974	0.0	6.2617511053111	0.9466512325623764	0.0	6.193920264258322	0.5040769077131384	0.0	5.759576707289885	0.5875331582437804	0.0	5.570643228014313	0.47505680451786103	0.0	5.580239936681348	0.5105679438105019	0.0	5.7322222188358545	0.6497543225039587	0.0	6.342653900610715	0.9412048318528939	0.0	6.529894550436237	0.5907297484632794	0.0	6.436023405155374	0.16535566043957006	0.0	6.603751040069047	0.06200172405503463	0.0	6.582185639719863	0.14130129521429524	0.0	6.375830894472608	0.11878452340729331	0.0	6.556169410475776	1.445162492588882	0.0	6.730771263486453	1.6404138566502258	0.0	6.724400921730991	1.5111030051719718	0.0	6.5530425992903245	1.405265011214867	0.0	6.414525886673211	1.1820768078959158	0.0	6.554237204476896	0.9911286517343243	0.0	6.472828156738046	1.4151687795671033	0.0	6.2953067309903625	1.2135494590539195	0.0	6.423132501329634	1.0349419346605964	0.0
211	1.8839285714285714	6.345814264969515	0.9347860792332515	0.0	6.307811287931611	0.9461727873746025	0.0	6.267761844353849	0.5004927102724331	0.0	5.837138294539208	0.6058366258133234	0.0	5.643030154462425	0.5011742492940685	0.0	5.655334206724665	0.5352422278679108	0.0	5.811273631544866	0.6697078586474059	0.0	6.3760452547455175	0.9406801258835344	0.0	6.550847138293516	0.5745123660756272	0.0	6.44427132352614	0.15503190923150612	0.0	6.610183116044425	0.05021189096579636	0.0	6.587716262315169	0.13238740552909004	0.0	6.383164460398833	0.1099576573356664	0.0	6.598932004317509	1.4424424954348871	0.0	6.7723567238897076	1.6386229091610933	0.0	6.767207846474555	1.5088611903195075	0.0	6.593219838295888	1.4037564323019267	0.0	6.443429274595388	1.1860132775052386	0.0	6.56774448849389	0.9776829435700163	0.0	6.522534061308699	1.410209672433351	0.0	6.354734804929092	1.1927144171802426	0.0	6.499216489726728	1.0244246612199481	0.0
